<svg t="1692264645405" class="icon" viewBox="0 0 1024 1024" version="1.1" xmlns="http://www.w3.org/2000/svg" p-id="6389" width="200" height="200"><path d="M926.293333 20.48H97.92A97.92 97.92 0 0 0 0 118.4v630.186667c0 53.973333 43.946667 97.92 97.92 97.92h828.16A97.92 97.92 0 0 0 1024 748.586667V118.4c0-26.026667-10.24-50.773333-28.586667-69.12A96.810667 96.810667 0 0 0 926.293333 20.48z m19.2 728.32a19.2 19.2 0 0 1-5.546666 13.653333 19.2 19.2 0 0 1-13.653334 5.546667H97.92a19.2 19.2 0 0 1-13.653333-5.546667 19.2 19.2 0 0 1-5.546667-13.653333V118.4a19.2 19.2 0 0 1 5.546667-13.653333 19.2 19.2 0 0 1 13.653333-5.546667h828.373333a19.2 19.2 0 0 1 13.653334 5.546667c3.626667 3.626667 5.546667 8.533333 5.546666 13.653333V748.8z m-149.76 176H225.706667c-21.76 0-39.466667 17.706667-39.466667 39.466667s17.706667 39.466667 39.466667 39.466666H795.733333c21.76 0 39.466667-17.706667 39.466667-39.466666a39.658667 39.658667 0 0 0-39.466667-39.466667zM661.12 305.066667c-15.146667-15.36-40.106667-15.573333-55.466667-0.426667l-212.693333 209.493333-91.733333-86.826666c-10.24-9.813333-24.746667-13.44-38.4-9.386667-13.44 4.053333-23.893333 14.933333-27.093334 28.586667-3.2 13.653333 1.066667 28.16 11.306667 37.76l119.253333 113.066666c7.253333 7.04 16.853333 10.88 27.093334 10.88s20.266667-4.053333 27.733333-11.306666l211.84-208.426667 85.546667 86.4c7.253333 7.466667 17.28 11.733333 27.733333 11.733333s20.48-4.053333 27.946667-11.52c7.466667-7.253333 11.733333-17.28 11.733333-27.733333s-4.053333-20.48-11.52-27.946667l-113.28-114.346666z m0 0" fill="#707070" p-id="6390"></path></svg>