<?xml version="1.0" standalone="no"?><!DOCTYPE svg PUBLIC "-//W3C//DTD SVG 1.1//EN" "http://www.w3.org/Graphics/SVG/1.1/DTD/svg11.dtd"><svg height="89" legacy-metrics="false" node-id="1" sillyvg="true" template-height="89" template-width="89" version="1.1" viewBox="0 0 89 89" width="89" xmlns="http://www.w3.org/2000/svg" xmlns:xlink="http://www.w3.org/1999/xlink"><defs node-id="8"></defs><g node-id="16"><path d="M 83.00 44.50 L 82.79 48.50 L 82.21 52.31 L 81.27 55.97 L 79.97 59.49 L 77.73 63.95 L 74.98 68.02 L 71.72 71.72 L 68.02 74.98 L 63.95 77.73 L 59.49 79.97 L 55.97 81.27 L 52.31 82.21 L 48.50 82.79 L 44.50 83.00 L 40.50 82.79 L 36.69 82.21 L 33.03 81.27 L 29.51 79.97 L 25.05 77.73 L 20.98 74.98 L 17.28 71.72 L 14.02 68.02 L 11.27 63.95 L 9.03 59.49 L 7.73 55.97 L 6.79 52.31 L 6.21 48.50 L 6.00 44.50 L 6.21 40.50 L 6.79 36.69 L 7.73 33.03 L 9.03 29.51 L 11.27 25.05 L 14.02 20.98 L 17.28 17.28 L 20.98 14.02 L 25.05 11.27 L 29.51 9.03 L 33.03 7.73 L 36.69 6.79 L 40.50 6.21 L 44.50 6.00 L 48.50 6.21 L 52.31 6.79 L 55.97 7.73 L 59.49 9.03 L 63.95 11.27 L 68.02 14.02 L 71.72 17.28 L 74.98 20.98 L 77.73 25.05 L 79.97 29.51 L 81.27 33.03 L 82.21 36.69 L 82.79 40.50 L 83.00 44.50 Z" fill="#ffe167" fill-rule="nonzero" group-id="1" node-id="12" stroke-linecap="butt" stroke-width="1" target-height="77" target-width="77" target-x="6" target-y="6"></path><path d="M 86.00 44.50 L 85.77 48.81 L 85.15 52.92 L 84.13 56.86 L 82.74 60.65 L 80.97 64.31 L 78.90 67.71 L 76.53 70.89 L 73.84 73.84 L 70.89 76.53 L 67.71 78.90 L 64.31 80.97 L 60.65 82.74 L 56.86 84.13 L 52.92 85.15 L 48.81 85.77 L 44.50 86.00 L 40.19 85.77 L 36.08 85.15 L 32.14 84.13 L 28.35 82.74 L 24.69 80.97 L 21.29 78.90 L 18.11 76.53 L 15.16 73.84 L 12.47 70.89 L 10.10 67.71 L 8.03 64.31 L 6.26 60.65 L 4.87 56.86 L 3.85 52.92 L 3.23 48.81 L 3.00 44.50 L 3.23 40.19 L 3.85 36.08 L 4.87 32.14 L 6.26 28.35 L 8.03 24.69 L 10.10 21.29 L 12.47 18.11 L 15.16 15.16 L 18.11 12.47 L 21.29 10.10 L 24.69 8.03 L 28.35 6.26 L 32.14 4.87 L 36.08 3.85 L 40.19 3.23 L 44.50 3.00 L 48.81 3.23 L 52.92 3.85 L 56.86 4.87 L 60.65 6.26 L 64.31 8.03 L 67.71 10.10 L 70.89 12.47 L 73.84 15.16 L 76.53 18.11 L 78.90 21.29 L 80.97 24.69 L 82.74 28.35 L 84.13 32.14 L 85.15 36.08 L 85.77 40.19 L 86.00 44.50 Z" fill="none" group-id="1" node-id="14" stroke="#030515" stroke-linecap="butt" stroke-width="6" target-height="83" target-width="83" target-x="3" target-y="3"></path></g><path d="M 43.95 24.07 L 43.95 47.81 L 60.88 47.81" fill="none" id="路径_34367" node-id="6" stroke="#030515" stroke-linecap="round" stroke-width="6" target-height="23.743164" target-width="16.927979" target-x="43.95105" target-y="24.066895"></path></svg>