<svg t="1695539705455" class="icon" viewBox="0 0 1024 1024" version="1.1" xmlns="http://www.w3.org/2000/svg" p-id="20307" width="200" height="200"><path d="M668.672 977.92H215.04c-88.064 0-159.744-71.68-159.744-159.744V185.344c0-88.064 71.68-159.744 159.744-159.744h453.632c88.064 0 159.744 71.68 159.744 159.744v632.832c0 88.064-71.68 159.744-159.744 159.744zM215.04 78.848c-58.368 0-106.496 48.128-106.496 106.496v632.832c0 58.368 48.128 106.496 106.496 106.496h453.632c58.368 0 106.496-48.128 106.496-106.496V185.344c0-58.368-48.128-106.496-106.496-106.496H215.04z" fill="#4C4C4C" p-id="20308"></path><path d="M225.28 40.96h53.248v921.6H225.28z" fill="#4C4C4C" p-id="20309"></path><path d="M102.4 249.856h140.288v53.248H102.4zM102.4 475.136h140.288v53.248H102.4zM102.4 699.392h140.288v53.248H102.4z" fill="#4C4C4C" p-id="20310"></path><path d="M629.76 363.52H453.632c-39.936 0-72.704-32.768-72.704-72.704v-51.2c0-39.936 32.768-72.704 72.704-72.704h176.128c39.936 0 72.704 32.768 72.704 72.704v51.2c-1.024 40.96-32.768 72.704-72.704 72.704zM453.632 228.352c-6.144 0-11.264 5.12-11.264 11.264v51.2c0 6.144 5.12 11.264 11.264 11.264h176.128c6.144 0 11.264-5.12 11.264-11.264v-51.2c0-6.144-5.12-11.264-11.264-11.264H453.632z" fill="#FFA028" p-id="20311"></path></svg>