<svg t="1695539599370" class="icon" viewBox="0 0 1024 1024" version="1.1" xmlns="http://www.w3.org/2000/svg" p-id="11604" width="200" height="200"><path d="M0 0h1024v1024H0z" fill="#D8D8D8" fill-opacity="0" p-id="11605"></path><path d="M111.304 521.572c0 171.453 113.575 316.861 271.138 368.195 19.812 3.562 27.047-8.437 27.047-18.7 0-9.215-0.334-33.613-0.535-66.003-110.28 23.441-133.543-52.023-133.543-52.023-18.03-44.834-44.032-56.766-44.032-56.766-35.995-24.041 2.739-23.574 2.739-23.574 39.78 2.738 60.727 40.003 60.727 40.003 35.35 59.28 92.784 42.162 115.378 32.211 3.607-25.043 13.847-42.162 25.155-51.867-88.02-9.773-180.58-43.075-180.58-191.755 0-42.34 15.449-77.023 40.826-104.115-4.096-9.794-17.697-49.285 3.896-102.689 0 0 33.258-10.44 109.011 39.78 31.61-8.615 65.536-12.911 99.24-13.067 33.68 0.156 67.583 4.452 99.26 13.067 75.688-50.22 108.9-39.78 108.9-39.78 21.638 53.426 8.037 92.872 3.963 102.69 25.422 27.113 40.738 61.773 40.738 104.114 0 149.058-92.695 181.87-180.981 191.465 14.202 11.977 26.89 35.662 26.89 71.858 0 51.868-0.489 93.719-0.489 106.43 0 10.395 7.146 22.483 27.247 18.676C790.73 838.3 904.214 692.981 904.214 521.594c0-214.305-177.53-388.029-396.488-388.029-218.891 0-396.422 173.724-396.422 388.007z" fill="#161614" p-id="11606"></path></svg>