<svg t="1695538631742" class="icon" viewBox="0 0 1024 1024" version="1.1" xmlns="http://www.w3.org/2000/svg" p-id="7775" width="200" height="200"><path d="M256.016 272h512v183.552h-512z" fill="#FFD740" p-id="7776"></path><path d="M688 1016H336a88.096 88.096 0 0 1-88-88V208c0-48.512 39.472-88 88-88h352c48.528 0 88 39.488 88 88v720c0 48.512-39.472 88-88 88z m-352-880a72.08 72.08 0 0 0-72 72v720c0 39.696 32.304 72 72 72h352c39.696 0 72-32.304 72-72V208c0-39.696-32.304-72-72-72H336zM328.016 56h-64a8 8 0 0 1 0-16h64a8 8 0 0 1 0 16z" fill="#263238" p-id="7777"></path><path d="M296.016 88a8 8 0 0 1-8-8V16a8 8 0 0 1 16 0v64a8 8 0 0 1-8 8zM240.016 128h-64a8 8 0 0 1 0-16h64a8 8 0 0 1 0 16z" fill="#263238" p-id="7778"></path><path d="M208.016 160a8 8 0 0 1-8-8v-64a8 8 0 0 1 16 0v64a8 8 0 0 1-8 8z" fill="#263238" p-id="7779"></path><path d="M320.016 528h96v96h-96z" fill="#40C4FF" p-id="7780"></path><path d="M416.016 632h-96a8 8 0 0 1-8-8v-96a8 8 0 0 1 8-8h96a8 8 0 0 1 8 8v96a8 8 0 0 1-8 8z m-88-16h80v-80h-80v80zM560.016 632h-96a8 8 0 0 1-8-8v-96a8 8 0 0 1 8-8h96a8 8 0 0 1 8 8v96a8 8 0 0 1-8 8z m-88-16h80v-80h-80v80z" fill="#263238" p-id="7781"></path><path d="M608.016 528h96v96h-96z" fill="#FFD740" p-id="7782"></path><path d="M704.016 632h-96a8 8 0 0 1-8-8v-96a8 8 0 0 1 8-8h96a8 8 0 0 1 8 8v96a8 8 0 0 1-8 8z m-88-16h80v-80h-80v80zM416.016 768h-96a8 8 0 0 1-8-8v-96a8 8 0 0 1 8-8h96a8 8 0 0 1 8 8v96a8 8 0 0 1-8 8z m-88-16h80v-80h-80v80z" fill="#263238" p-id="7783"></path><path d="M464.016 664h96v96h-96z" fill="#FF5252" p-id="7784"></path><path d="M560.016 768h-96a8 8 0 0 1-8-8v-96a8 8 0 0 1 8-8h96a8 8 0 0 1 8 8v96a8 8 0 0 1-8 8z m-88-16h80v-80h-80v80zM704.016 768h-96a8 8 0 0 1-8-8v-96a8 8 0 0 1 8-8h96a8 8 0 0 1 8 8v96a8 8 0 0 1-8 8z m-88-16h80v-80h-80v80zM768 216H256a8 8 0 0 1 0-16h512a8 8 0 0 1 0 16zM768 936H256a8 8 0 0 1 0-16h512a8 8 0 0 1 0 16z" fill="#263238" p-id="7785"></path><path d="M512.016 1016c-26.464 0-48-21.536-48-48s21.536-48 48-48 48 21.536 48 48-21.536 48-48 48z m0-80c-17.648 0-32 14.352-32 32s14.352 32 32 32 32-14.352 32-32-14.352-32-32-32zM552.016 176h-80a8 8 0 0 1 0-16h80a8 8 0 0 1 0 16zM176.016 520a8 8 0 0 1-8-8V288a8 8 0 0 1 16 0v224a8 8 0 0 1-8 8zM176.016 584a8 8 0 0 1-8-8v-32a8 8 0 0 1 16 0v32a8 8 0 0 1-8 8z" fill="#263238" p-id="7786"></path><path d="M848 856a8 8 0 0 1-8-8V624a8 8 0 0 1 16 0v224a8 8 0 0 1-8 8z" fill="#263238" p-id="7787"></path><path d="M848 600a8 8 0 0 1-8-8v-32a8 8 0 0 1 16 0v32a8 8 0 0 1-8 8z" fill="#263238" p-id="7788"></path><path d="M256.016 208h512v64h-512z" fill="#4DB6AC" p-id="7789"></path><path d="M768 280H256a8 8 0 0 1-8-8v-64a8 8 0 0 1 8-8h512a8 8 0 0 1 8 8v64a8 8 0 0 1-8 8z m-503.984-16h496v-48h-496v48z" fill="#263238" p-id="7790"></path></svg>